# xmcd
#
# Track frame offsets: 
#        150
#        10330
#        26770
#        41506
#        61088
#        75394
#        88989
#        104713
#        118643
#        132322
#        146329
#        178624
#        189845
#        205701
#        214462
#        221567
#        231577
#        244093
#
# Disc length: 3421 seconds
#
# Revision: 0
# Processed by: cddbd v1.5.1PL2 Copyright (c) Steve Scherf et al.
# Submitted via: ExactAudioCopy v0.95b3
#
DISCID=040d5b12
DTITLE=The Lilly Bros. and Don Stover - Bluegrass At The Roots
DYEAR=2005
DGENRE=Bluegrass
TTITLE0=In My Dear Old Southern Home
TTITLE1=Midnight On The Stormy Sea
TTITLE2=Forgotten Soldier Boy
TTITLE3=Down On The Banks Of The Ohio
TTITLE4=Where Is My Sailor Boy?
TTITLE5=Sinner, You Better Get Ready
TTITLE6=What Would You Give In Exchange?
TTITLE7=Oh, Hide You In The Blood
TTITLE8=Little Annie
TTITLE9='Neath That Cold Grey Tomb Of Stone
TTITLE10=Barbara Allen
TTITLE11=The Fox And Hounds
TTITLE12=John Hardy
TTITLE13=Old Joe Clark
TTITLE14=Salt River
TTITLE15=Cornbread And 'Lasses And Sassafras Tea
TTITLE16=The Waves On The Sea
TTITLE17=Saints Go Marching In
EXTD=Tracks 1-8:\nMitchell "B" Lilly, g, vocal\nEverett Lilly, mandoli
EXTD=n, vcl, drop-thumb banjo, fiddle, guitar\n\nTracks 9-18 with:\nDo
EXTD=n Stover, 5-string banjo\nHerb Hooven, fiddle or bass\noccasional
EXTD=ly Mike Seeger, string bass\n\nRec. in the YMCA Hall, Boston, Mas
EXTD=s., Jan. 25-27, 1961\n\nSmithsonian Folkways Recordings: SFW CD 4
EXTD=0158
EXTT0=
EXTT1=
EXTT2=
EXTT3=
EXTT4=
EXTT5=
EXTT6=
EXTT7=
EXTT8=
EXTT9=
EXTT10=
EXTT11=
EXTT12=
EXTT13=
EXTT14=
EXTT15=
EXTT16=
EXTT17=
PLAYORDER=
